<svg xmlns="http://www.w3.org/2000/svg" xmlns:xlink="http://www.w3.org/1999/xlink" viewBox="0,0,256,256" width="100px" height="100px" fill-rule="nonzero"><g fill="#ffffff" fill-rule="nonzero" stroke="none" stroke-width="1" stroke-linecap="butt" stroke-linejoin="miter" stroke-miterlimit="10" stroke-dasharray="" stroke-dashoffset="0" font-family="none" font-weight="none" font-size="none" text-anchor="none" style="mix-blend-mode: normal"><g transform="scale(2.56,2.56)"><path d="M11,22c-0.55226,0.00006 -0.99994,0.44774 -1,1v29.81641c0,4.3653 1.59908,7.4858 3.80469,9.43555c2.2056,1.94975 4.9448,2.74805 7.27148,2.74805c1.30281,0 3.66805,-0.14659 5.1543,-0.70312c0.29388,-0.11012 0.51902,-0.3518 0.60807,-0.65273c0.08905,-0.30093 0.03168,-0.62621 -0.15495,-0.87852c-2.24618,-3.02766 -2.68359,-5.98683 -2.68359,-9.80273v-29.96289c-0.00006,-0.55226 -0.44774,-0.99994 -1,-1zM70,22c-8.27244,0 -15,6.72756 -15,15v27c0.00006,0.55226 0.44774,0.99994 1,1c6.06341,0 11,-4.93659 11,-11v-2h3c0.55226,-0.00006 0.99994,-0.44774 1,-1v-9c-0.00006,-0.55226 -0.44774,-0.99994 -1,-1h-3v-4.82812c0,-1.60169 1.16525,-3.01199 2.70117,-3.1582c1.81772,-0.1737 3.29883,1.21937 3.29883,2.98633v14c0,8.27244 6.72756,15 15,15c0.55226,-0.00006 0.99994,-0.44774 1,-1v-9.5c-0.00006,-0.55226 -0.44774,-0.99994 -1,-1c-1.66848,0 -3,-1.33152 -3,-3v-5.5h3c0.55226,-0.00006 0.99994,-0.44774 1,-1v-9c-0.00006,-0.55226 -0.44774,-0.99994 -1,-1h-3.45703c-1.41263,-6.81618 -7.31739,-12 -14.54297,-12zM12,24h10v28.96289c0,3.45835 0.48083,6.60034 2.25977,9.625c-1.10841,0.18986 -2.42207,0.41211 -3.18359,0.41211c-1.86032,0 -4.15967,-0.66759 -5.94531,-2.24609c-1.78565,-1.5785 -3.13086,-4.0478 -3.13086,-7.9375zM70,24c6.55764,0 11.94789,4.8438 12.85156,11.14258c0.07096,0.49227 0.49287,0.8576 0.99023,0.85742h3.1582v7h-3c-0.55226,0.00006 -0.99994,0.44774 -1,1v6.5c0,2.39546 1.74181,4.31722 4,4.79688v7.60352c-6.71378,-0.5176 -12,-6.05151 -12,-12.90039v-14c0,-2.91104 -2.534,-5.25887 -5.48828,-4.97656c-2.62408,0.24979 -4.51172,2.57212 -4.51172,5.14844v5.82813c0.00006,0.55226 0.44774,0.99994 1,1h3v7h-3c-0.55226,0.00006 -0.99994,0.44774 -1,1v3c0,4.62747 -3.5147,8.28139 -8,8.79883v-25.79883c0,-7.19156 5.80844,-13 13,-13zM70,26c-0.18032,-0.00255 -0.34804,0.09219 -0.43894,0.24794c-0.0909,0.15575 -0.0909,0.34838 0,0.50413c0.0909,0.15575 0.25863,0.25049 0.43894,0.24794c4.93109,0 9.18115,3.68563 9.88086,8.56836c0.03937,0.27345 0.29296,0.4632 0.56641,0.42383c0.27345,-0.03937 0.4632,-0.29296 0.42383,-0.56641c-0.77029,-5.37527 -5.44219,-9.42578 -10.87109,-9.42578zM14.58008,35.76367c-0.13261,0.00207 -0.25896,0.05673 -0.35127,0.15197c-0.0923,0.09523 -0.14299,0.22324 -0.14092,0.35584v9c-0.00255,0.18032 0.09219,0.34804 0.24794,0.43894c0.15575,0.0909 0.34838,0.0909 0.50413,0c0.15575,-0.0909 0.25049,-0.25863 0.24794,-0.43894v-9c0.00212,-0.13532 -0.0507,-0.26572 -0.1464,-0.36141c-0.0957,-0.0957 -0.22609,-0.14852 -0.36141,-0.1464zM27,36c-0.55226,0.00006 -0.99994,0.44774 -1,1v17c0,3.19444 0.94387,5.97514 2.8418,7.94336c1.89793,1.96822 4.70307,3.05664 8.1582,3.05664c2.16608,0 3.96546,-0.62422 5.29102,-1.26953c-1.13708,2.64728 -3.53906,4.26953 -7.29102,4.26953c-2.16615,0 -4.22894,-0.30056 -5.58984,-0.91211c-0.30945,-0.13911 -0.66833,-0.11185 -0.95322,0.07242c-0.28488,0.18427 -0.45692,0.5004 -0.45694,0.83969v7.5c-0.00003,0.37879 0.21395,0.72509 0.55273,0.89453c0,0 3.2517,1.60547 8.54297,1.60547c2.66856,0 6.54595,-0.78542 9.875,-3.13086c3.32905,-2.34544 6.0293,-6.34464 6.0293,-12.36914v-25.5c-0.00006,-0.55226 -0.44774,-0.99994 -1,-1h-10c-0.55226,0.00006 -0.99994,0.44774 -1,1v15.5c0,0.84081 -0.65919,1.5 -1.5,1.5c-0.84081,0 -1.5,-0.65919 -1.5,-1.5v-15.5c-0.00006,-0.55226 -0.44774,-0.99994 -1,-1zM28,38h8v14.5c0,1.92119 1.57881,3.5 3.5,3.5c1.92119,0 3.5,-1.57881 3.5,-3.5v-14.5h8v24.5c0,5.4445 -2.28994,8.69511 -5.18164,10.73242c-2.8917,2.03731 -6.46422,2.76758 -8.72266,2.76758c-4.2174,0 -6.44735,-0.91368 -7.0957,-1.20117v-5.48828c1.52977,0.43913 3.21094,0.68945 5,0.68945c5.54453,0 9.30621,-3.4703 9.95703,-8.33398c0.05525,-0.41307 -0.15144,-0.81711 -0.51874,-1.01402c-0.3673,-0.19691 -0.81821,-0.14541 -1.13165,0.12926c0,0 -2.55498,2.21875 -6.30664,2.21875c-3.04487,0 -5.23972,-0.91158 -6.7168,-2.44336c-1.47707,-1.53178 -2.2832,-3.75108 -2.2832,-6.55664zM48.49219,39.99219c-0.13261,0.00207 -0.25896,0.05673 -0.35127,0.15197c-0.0923,0.09523 -0.14299,0.22324 -0.14092,0.35584v3c-0.00255,0.18032 0.09219,0.34804 0.24794,0.43894c0.15575,0.0909 0.34838,0.0909 0.50413,0c0.15575,-0.0909 0.25049,-0.25863 0.24794,-0.43894v-3c0.00212,-0.13532 -0.0507,-0.26572 -0.1464,-0.36141c-0.0957,-0.0957 -0.22609,-0.14852 -0.36141,-0.1464zM80.49219,42.99219c-0.13261,0.00207 -0.25896,0.05673 -0.35127,0.15197c-0.0923,0.09523 -0.14299,0.22324 -0.14092,0.35584v2c-0.00255,0.18032 0.09219,0.34804 0.24794,0.43894c0.15575,0.0909 0.34838,0.0909 0.50413,0c0.15575,-0.0909 0.25049,-0.25863 0.24794,-0.43894v-2c0.00212,-0.13532 -0.0507,-0.26572 -0.1464,-0.36141c-0.0957,-0.0957 -0.22609,-0.14852 -0.36141,-0.1464zM48.49219,45.99219c-0.13261,0.00207 -0.25896,0.05673 -0.35127,0.15197c-0.0923,0.09523 -0.14299,0.22324 -0.14092,0.35584v16c0,5.26394 -2.65812,7.79512 -5.37891,9.12891c-1.36039,0.66689 -2.73895,1.01352 -3.7793,1.18945c-1.04034,0.17593 -1.8097,0.18164 -1.74609,0.18164c-1.87762,0 -3.39624,-0.24497 -4.47852,-0.50391c-0.17375,-0.04188 -0.35665,0.01213 -0.47978,0.14167c-0.12314,0.12954 -0.16781,0.31493 -0.11719,0.48634c0.05062,0.17141 0.18884,0.30279 0.3626,0.34465c1.14973,0.27507 2.74851,0.53125 4.71289,0.53125c0.1206,0 0.80333,-0.0098 1.91211,-0.19727c1.10878,-0.18751 2.57613,-0.55153 4.05273,-1.27539c2.95321,-1.44772 5.93945,-4.41729 5.93945,-10.02734v-16c0.00212,-0.13532 -0.0507,-0.26572 -0.1464,-0.36141c-0.0957,-0.0957 -0.22609,-0.14852 -0.36141,-0.1464zM14.58008,47.76367c-0.13261,0.00207 -0.25896,0.05673 -0.35127,0.15197c-0.0923,0.09523 -0.14299,0.22324 -0.14092,0.35584v2c-0.00255,0.18032 0.09219,0.34804 0.24794,0.43894c0.15575,0.0909 0.34838,0.0909 0.50413,0c0.15575,-0.0909 0.25049,-0.25863 0.24794,-0.43894v-2c0.00212,-0.13532 -0.0507,-0.26572 -0.1464,-0.36141c-0.0957,-0.0957 -0.22609,-0.14852 -0.36141,-0.1464zM80.49219,47.99219c-0.13261,0.00207 -0.25896,0.05673 -0.35127,0.15197c-0.0923,0.09523 -0.14299,0.22324 -0.14092,0.35584v2c0,3.06037 1.72978,5.73109 4.26563,7.07422c0.15805,0.08376 0.34878,0.07682 0.50033,-0.01818c0.15155,-0.09501 0.2409,-0.26366 0.23439,-0.44241c-0.00651,-0.17875 -0.1079,-0.34045 -0.26597,-0.42417c-2.21816,-1.17487 -3.73437,-3.50582 -3.73437,-6.18945v-2c0.00212,-0.13532 -0.0507,-0.26572 -0.1464,-0.36141c-0.0957,-0.0957 -0.22609,-0.14852 -0.36141,-0.1464zM14.58008,51.76563c-0.27537,0.00431 -0.49542,0.23047 -0.49219,0.50586v0.31641c0,2.62445 0.56546,4.44073 1.39453,5.68359c0.82907,1.24286 1.91458,1.88947 2.85938,2.20313c0.26212,0.08737 0.54544,-0.05429 0.63281,-0.31641c0.08737,-0.26212 -0.05429,-0.54544 -0.31641,-0.63281c-0.77821,-0.25835 -1.64757,-0.76496 -2.34375,-1.80859c-0.69618,-1.04364 -1.22656,-2.64736 -1.22656,-5.12891v-0.31641c0.00158,-0.13498 -0.05147,-0.26487 -0.14711,-0.36014c-0.09564,-0.09527 -0.22573,-0.14782 -0.3607,-0.14572z"></path></g></g></svg>