<svg xmlns="http://www.w3.org/2000/svg" xmlns:xlink="http://www.w3.org/1999/xlink" viewBox="0,0,256,256" width="48px" height="48px" fill-rule="nonzero"><g fill="none" fill-rule="nonzero" stroke="none" stroke-width="1" stroke-linecap="butt" stroke-linejoin="miter" stroke-miterlimit="10" stroke-dasharray="" stroke-dashoffset="0" font-family="none" font-weight="none" font-size="none" text-anchor="none" style="mix-blend-mode: normal"><g transform="scale(5.33333,5.33333)"><path d="M46,37h-26v-20h26c0.552,0 1,0.448 1,1v18c0,0.552 -0.448,1 -1,1z" fill="#ffffff"></path><path d="M47,16h-26v-5c0,-0.552 -0.448,-1 -1,-1h-19c-0.552,0 -1,0.448 -1,1v26c0,0.552 0.448,1 1,1h16h4h26c0.552,0 1,-0.447 1,-1v-20c0,-0.553 -0.448,-1 -1,-1zM46,36h-25v-18h25z" fill="#dddddd"></path><path d="M11,34h-4c0,-6.029 3.04,-11.919 4.933,-15h-7.933v-4h13v3.664l-0.399,0.534c-0.056,0.075 -5.601,7.583 -5.601,14.802z" fill="#ffffff"></path><path d="M26.579,30.323h4.421v1.677h-6.955v-1.217l4.376,-7.099h-4.421v-1.684h6.918v1.19z" fill="#dddddd"></path><rect x="33" y="22" width="2" height="9.976" fill="#dddddd"></rect><path d="M43.069,22.922c-0.613,-0.611 -1.448,-0.922 -2.484,-0.922h-3.585v9.98h2.125v-3.507h1.417c1.079,0 1.935,-0.291 2.538,-0.852c0.613,-0.571 0.92,-1.342 0.92,-2.314c0,-0.982 -0.307,-1.774 -0.931,-2.385zM41.526,26.419c-0.222,0.251 -0.539,0.371 -0.941,0.371h-1.459v-3.106h1.48c0.381,0 0.687,0.15 0.909,0.441c0.233,0.301 0.338,0.701 0.338,1.192c0,0.481 -0.105,0.851 -0.327,1.102z" fill="#dddddd"></path></g></g></svg>