<svg xmlns="http://www.w3.org/2000/svg" xmlns:xlink="http://www.w3.org/1999/xlink" viewBox="0,0,256,256" width="48px" height="48px" fill-rule="nonzero"><g fill="none" fill-rule="nonzero" stroke="none" stroke-width="1" stroke-linecap="butt" stroke-linejoin="miter" stroke-miterlimit="10" stroke-dasharray="" stroke-dashoffset="0" font-family="none" font-weight="none" font-size="none" text-anchor="none" style="mix-blend-mode: normal"><g transform="scale(5.33333,5.33333)"><path d="M34,42h-20c-4.411,0 -8,-3.589 -8,-8v-20c0,-4.411 3.589,-8 8,-8h20c4.411,0 8,3.589 8,8v20c0,4.411 -3.589,8 -8,8z" fill="#dddddd"></path><path d="M24,24c0,2.237 -1.752,4.05 -3.913,4.05c-2.161,0 -3.913,-1.813 -3.913,-4.05c0,-2.237 1.752,-4.05 3.913,-4.05c2.161,0 3.913,1.813 3.913,4.05zM20.087,21.764c-1.081,0 -1.957,1.001 -1.957,2.236c0,1.235 0.876,2.236 1.957,2.236c1.081,0 1.957,-1.001 1.957,-2.236c0,-1.235 -0.876,-2.236 -1.957,-2.236z" fill="#ffffff"></path><path d="M39,24c0,2.237 -1.752,4.05 -3.913,4.05c-2.161,0 -3.913,-1.813 -3.913,-4.05c0,-2.237 1.752,-4.05 3.913,-4.05c2.161,0 3.913,1.813 3.913,4.05zM35.087,21.764c-1.081,0 -1.957,1.001 -1.957,2.236c0,1.235 0.876,2.236 1.957,2.236c1.081,0 1.957,-1.001 1.957,-2.236c0,-1.235 -0.876,-2.236 -1.957,-2.236z" fill="#ffffff"></path><path d="M27.261,25.957v-5.87h-1.957v7.826h5.218v-1.956z" fill="#ffffff"></path><path d="M16.174,20.087l-2.609,4.565v3.261h-1.956v-3.261l-2.609,-4.565h1.957l1.63,2.609l1.63,-2.609z" fill="#ffffff"></path></g></g></svg>